<svg xmlns="http://www.w3.org/2000/svg" viewBox="0 0 1580.91 576.07"><defs><style>.cls-1,.cls-2{fill:#f7f7f7;}.cls-2{font-size:150.4px;font-family:Poppins-Bold, Poppins;font-weight:700;}</style></defs><g id="Layer_2" data-name="Layer 2"><g id="Layer_2-2" data-name="Layer 2"><path class="cls-1" d="M300.72,479.93c-19.24-121.19-30.92-252.44-34-366.29C264.56,31.79,249.2,2.37,198.72,0c-13.82-.65-71.21,82.66-84.3,100.94s-61.14,79.9-84.84,107.59-36.73,66-25.48,84.08c19.68,31.61,23.86,21.07,33.44,2.85S86.62,218,99.73,211c0,0,86,91.12,98.82,114.07s24.26,111.83,36.25,170.09c10.31,50.18,13.86,71.28,54.46,78.65S316,575.84,300.72,479.93ZM209.9,214.27c-.19,19-26.43-7.08-41.27-21.09C148.33,174,139,165.11,140.14,157.86c2-13,53.58-71.59,56.2-74.42,10.06-10.89,12.12,22.32,13.56,57.08C211.77,185.12,210.06,199,209.9,214.27Z"/><path class="cls-1" d="M311.92,3.7C335.58,5.83,371.13,14,373.29,43.08s17.63,263.21,21.12,261.18,33.72-70.45,62.17-96.81c10.35-9.59,61.33-1.2,60.44,9.11s-36.09,48.61-75.74,121.49c-48.1,88.41-69.85,190.46-87.4,133-15.71-51.37-22.81-91.2-46.47-336.65C295.16,7.39,288.59,1.6,311.92,3.7Z"/><path class="cls-1" d="M513.78,6C452.87.78,432.85,36.67,420,66.12s-8.8,103.11,64.84,114.67,89.43-26.1,94.47-80.92C585.22,35.13,544.4,8.67,513.78,6Zm7.86,86.06c-6.39,24.08-21.61,47.31-32.72,44.51-12-3-13.94-19.83-6.05-46.78s22.66-40,30.91-40C523.61,49.88,527,72,521.64,92.08Z"/><text class="cls-2" transform="translate(547.79 451.61)">Digital</text><text class="cls-2" transform="translate(650.85 292)">Diseñadora </text></g></g></svg>