<svg xmlns="http://www.w3.org/2000/svg" viewBox="0 0 973.92 973.91"><defs><style>.cls-1{fill:#55448c;}.cls-2{fill:#363344;}.cls-3{fill:#deafb5;}.cls-4{fill:#f8d4d6;}.cls-5{fill:#c466bd;}.cls-6,.cls-7{fill:#ef8fa4;}.cls-6{opacity:0.29;}.cls-7{opacity:0.35;}.cls-8{fill:#c14e5e;stroke:#c14e5e;stroke-width:16px;}.cls-11,.cls-12,.cls-8{stroke-linecap:round;stroke-linejoin:round;}.cls-9{fill:#f9eaf6;}.cls-10{fill:#492e1c;}.cls-11,.cls-12,.cls-13{fill:none;}.cls-11{stroke:#2b190f;stroke-width:28px;}.cls-12{stroke:#331e1a;stroke-width:24px;}.cls-13{stroke:#5c557c;stroke-miterlimit:10;stroke-width:18px;}</style></defs><g id="Layer_2" data-name="Layer 2"><g id="Layer_1-2" data-name="Layer 1"><path class="cls-1" d="M205.62,516.9c-1.9,14.31-32.26,45.31-34.77,72.56-2.14,23.25,20.91,53.86,12.66,71.45-33.28,70.89,42.11,91.7,58.22,84.13,66.33-31.19,168.44.74,240.34,1.13,63.07.35,148.33-65.54,224.7-23.7,39.62,21.7,90.62-15.72,73.18-45.82-15.13-26.14,28.44-38.84,14-74.44-9.5-23.41-29.52-158.13-29.52-158.13a29.7,29.7,0,0,0-22.85-25.45L418.33,342.08a30.56,30.56,0,0,0-26.83,6.42L215.71,498.42A29.34,29.34,0,0,0,205.62,516.9Z"/><path class="cls-2" d="M684.58,412.87l-13.1,23.82-1.89,3.45-16.35,29.73-13.91,25.3h0l-21.54,39.16-39.55,71.95L566.88,627l-15.64,28.44-3.91,7.12L532,690.39l-.14.26-1.42,2.58h0l-12,21.87-8.09,14.72-5.23,9.51L430.27,875.43v0l-26.84,48.8L386.85,954.4a471.12,471.12,0,0,1-57.06-15.94c8-23.74,17-48.63,27.19-74.28,7.39-18.6,15.4-37.61,24.06-56.85q10.6-23.58,22.56-47.54,7.29-14.64,15.13-29.33l.18-.33q4.77-9,9.75-17.89h0q3.93-7.08,8-14.14c.5-.88,1-1.76,1.52-2.64.92-1.6,1.84-3.19,2.78-4.78q7.6-13,15.66-26c.68-1.11,1.37-2.21,2.06-3.31,2.94-4.7,5.92-9.37,9-14.05v0q5.47-8.46,11.14-16.87,10.31-15.28,21.29-30.35,5.94-8.16,12.1-16.25c16.17-21.24,33.37-42,51.69-62.14q1.92-2.11,3.87-4.22h0q9-9.78,18.39-19.34,3.42-3.48,6.89-6.93,4-4,8.07-7.92h0q11.45-11.1,23.41-21.8,16.83-15,34.71-29.27l2.61-2.06Q673,421.31,684.58,412.87Z"/><path class="cls-2" d="M403.12,954v0c-.22,1.15-.46,2.3-.73,3.45l-.44-.08q-7.59-1.36-15.1-3a471.12,471.12,0,0,1-57.06-15.94q-9.07-3.15-18-6.66a474.79,474.79,0,0,1-59.47-28.35l-.35.5.28-.54a86.93,86.93,0,0,1,14-19.58h0c19.21-20.11,46.86-29.48,73.36-24.82A76.71,76.71,0,0,1,357,864.18c1.66.71,3.32,1.49,4.95,2.34,22.87,11.83,37.43,33.56,41.49,57.73A84.38,84.38,0,0,1,403.12,954Z"/><ellipse class="cls-2" cx="414.54" cy="764.62" rx="54.36" ry="52.19" transform="translate(-455.06 781.37) rotate(-62.64)"/><path class="cls-2" d="M460.12,789l-.86,2.48h0l-29,83.9v0L403.12,954v0L402,957.37q-7.59-1.36-15.1-3a471.12,471.12,0,0,1-57.06-15.94q-9.07-3.15-18-6.66a474.79,474.79,0,0,1-59.47-28.35l14-19.62h0L367.86,741.29l25.92,13.41,9.82,5.09Z"/><path class="cls-2" d="M753.43,883.78a475.37,475.37,0,0,1-87.09,46.32c-1.35.56-2.71,1.1-4.06,1.64h0a475.93,475.93,0,0,1-55.37,18l-.56.15c-.69-1.47-1.32-2.93-1.9-4.42h0c-13-33.07-4.36-71.37,24-93.68,1.58-1.24,3.19-2.42,4.84-3.51,28-18.78,64.74-17.11,92.26,2.45l0,0a87.78,87.78,0,0,1,27.89,33Z"/><ellipse class="cls-2" cx="557.53" cy="761.62" rx="52.19" ry="54.36" transform="translate(-351.71 508.27) rotate(-38.22)"/><path class="cls-2" d="M743.43,867.82,665.9,928.88l-3.62,2.86h0a475.93,475.93,0,0,1-55.37,18l-2.46-4.27h0l-85.75-149-1.32-2.3L572.24,751,599,729.91,725.5,850.71l0,0Z"/><path class="cls-2" d="M666.34,930.1c-1.35.56-2.71,1.1-4.06,1.64h0a475.93,475.93,0,0,1-55.37,18l-.56.15a482.23,482.23,0,0,1-204,7.57l-.44-.08q-7.59-1.36-15.1-3a471.12,471.12,0,0,1-57.06-15.94q-9.07-3.15-18-6.66c9.08-25.47,18.42-50,27.88-72.8,6.59-15.83,13.24-30.8,19.9-44.61,3.28-6.8,6.57-13.58,10-20.23,7.21-14.08,14.93-27.58,24.22-39.46a119,119,0,0,1,25-24.24c.12-.1.25-.18.37-.27h0a99.89,99.89,0,0,1,19.06-10.5c1.41-.59,2.84-1.15,4.3-1.68h0c12.63-4.63,27.27-7.22,44.48-7.22a111.36,111.36,0,0,1,31.45,4.32c2.49.73,4.93,1.55,7.3,2.45,2.15.8,4.24,1.68,6.29,2.61a106.82,106.82,0,0,1,17.28,10,137.12,137.12,0,0,1,23,20.83c11.18,12.5,20.78,26.9,29.72,41.64,6.63,10.95,12.91,22.1,19.2,32.8,4,6.78,8,14.44,12.08,22.85,10.79,22.36,21.81,50,32.66,80.62C666.05,929.29,666.2,929.69,666.34,930.1Z"/><path class="cls-1" d="M547.09,118.4S440.43,61.72,309.91,133.68,60.43,550.8,348.63,612.8s368.64-54.64,368.64-54.64,119-173.24,21.77-334.09C693.12,148.06,633.48,105.1,547.09,118.4Z"/><path class="cls-1" d="M532.18,340.7c-116.48-12.51-241.67-19.81-269.35,2.19l-54.48,43.3c-1.14,2.57-63.16,57.46-53.71,116.76,6.53,40.93-22.36,76.69-27.59,90.55C98.6,668.85,304.71,706.44,504,706.44Z"/><path class="cls-1" d="M439.53,336.5C556,324,681.2,316.69,708.87,338.68L763.36,382c-10.84,14.39-6.8,32.47,21,87.56,16.8,33.3,22.95,78.46,45.19,104.68,48.94,57.72-162.53,128-361.85,128Z"/><rect class="cls-3" x="438.17" y="600.06" width="93.83" height="129.77"/><path class="cls-4" d="M715,487.55q0,6.52-.25,12.75c-3.14,81.95-37.06,123.85-88.51,144.8-39.65,16.14-89.71,19.84-144.15,19.84-55.07,0-105.69-2.84-145.56-18.8-50-20-83.1-60.65-87-142.18q-.37-7.93-.38-16.41c0-125.55,104.28-242.84,232.9-242.84S715,362,715,487.55Z"/><path class="cls-5" d="M556.76,145.73S403,96.42,300.77,188s-97.18,216.15-97.18,216.15,119.67,52.13,232.9-20.11c97.18-62,112.26-110.59,112.26-110.59S588.58,375.67,665,404.16s103.53,8.53,103.53,8.53S796,188.9,556.76,145.73Z"/><path class="cls-4" d="M814,469.66c0,61.72-32.81,74.22-74.23,74.22-60.16,0-74.22-33.23-74.22-74.22a74.24,74.24,0,0,1,74.22-74.23c31,0,57.19,9.63,68.4,38.4C812,443.5,814,455.32,814,469.66Z"/><path class="cls-3" d="M779.81,466.39,714.5,491.15a3.38,3.38,0,0,0-2,4.32c4.48,12.49,14.39,17.94,34.29,17.94,20.92,0,37.5-7.39,37.5-43.86v-.06A3.34,3.34,0,0,0,779.81,466.39Z"/><path class="cls-6" d="M808.2,433.83c-6.21,11-18.78,14.92-34.76,16.29-8.74.76-18.5.76-28.79.76a117.25,117.25,0,0,1-31.53-4.15c-15.61-4.4-27.63-12-33.08-21.08a74.06,74.06,0,0,1,59.76-30.22C770.81,395.43,797,405.06,808.2,433.83Z"/><path class="cls-3" d="M709.33,469.55v.05a3.35,3.35,0,0,0,4.54,3.11l63.91-24.24a3.32,3.32,0,0,0,1.87-4.48c-6.36-13.6-18.59-18.3-32.81-18.3C726.13,425.69,709.33,437.13,709.33,469.55Z"/><path class="cls-4" d="M298.15,469.66c0,41-14.06,74.22-74.23,74.22-41.4,0-74.22-12.5-74.22-74.22,0-13.15,1.75-24.18,4.94-33.38,10.66-30.67,37.42-40.85,69.28-40.85a74.21,74.21,0,0,1,74.23,74.23Z"/><path class="cls-6" d="M282.27,423.76c-4.63,9.53-16.33,17.54-31.93,22.33a116.21,116.21,0,0,1-33.71,4.79c-9.1,0-17.78,0-25.71-.52-16.17-1.06-29.2-4.29-36.28-14.08,10.66-30.67,37.42-40.85,69.28-40.85A74.1,74.1,0,0,1,282.27,423.76Z"/><path class="cls-3" d="M183.92,466.39l65.32,24.76a3.38,3.38,0,0,1,1.95,4.32c-4.48,12.49-14.39,17.94-34.29,17.94-20.93,0-37.51-7.39-37.51-43.86v-.06A3.34,3.34,0,0,1,183.92,466.39Z"/><path class="cls-3" d="M254.4,469.55v.05a3.34,3.34,0,0,1-4.53,3.11L186,448.47a3.32,3.32,0,0,1-1.88-4.48c6.36-13.6,18.59-18.3,32.82-18.3C237.61,425.69,254.4,437.13,254.4,469.55Z"/><path class="cls-7" d="M412.38,564.06c0,42.64-32.73,78.1-75.95,85.53-50-20.07-83.1-60.82-87-142.57,17-18.33,42.11-29.92,70.08-29.92C370.82,477.1,412.38,516,412.38,564.06Z"/><path class="cls-7" d="M714.66,503.34c-3.14,82.18-37.06,124.2-88.52,145.21-40.62-9.27-70.77-43.58-70.77-84.49,0-48,41.57-87,92.84-87A95.71,95.71,0,0,1,714.66,503.34Z"/><path class="cls-5" d="M698.19,370.28a4.08,4.08,0,0,0-7.32,2.71c1.24,22.38,22.77,85.58,8.82,142.17-5.05,20.48,10.23,40.45,9.78,62-.56,27.05-18.59,30.14-20.77,53.82-2.75,29.83,7,48-22.65,98.95-2,3.42,14.48-3.91,17.57-6.39,36.87-29.76,25.85-43.58,25.85-86.32,0-21.19,45.36-56,31.22-83-13.56-25.86,14.64-62.89.94-99.82C719.87,395.68,708.77,384,698.19,370.28Z"/><path class="cls-5" d="M272,370.28a4.08,4.08,0,0,1,7.32,2.71c-1.24,22.38-22.76,85.58-8.81,142.17,5,20.48-10.23,40.45-9.78,62,.56,27.05,18.58,30.14,20.77,53.82,2.75,29.83-7,48,22.64,98.95,2,3.42-14.48-3.91-17.56-6.39-36.87-29.76-25.85-43.58-25.85-86.32,0-21.19-45.36-56-31.22-83,13.55-25.86-14.64-62.89-.95-99.82C250.29,395.68,261.39,384,272,370.28Z"/><path class="cls-8" d="M504.14,560.77c0,14.35-1.58,32.73-19.06,32.73-20.3,0-18.74-18.38-18.74-32.73,0,0-5.29,32.73,18.11,32.73C508.83,593.5,504.14,560.77,504.14,560.77Z"/><path class="cls-9" d="M551.49,420c-15.45,28,.72,58.36,25,73.24s63.15,16.5,87.42-23.16c15.25-24.91,20.69-28.22-45.21-58.34C592.81,399.92,563.69,397.88,551.49,420Z"/><ellipse class="cls-10" cx="590.21" cy="452.05" rx="35.31" ry="39.23"/><path class="cls-11" d="M676.9,440.56c-60.17-43.64-91.3-45.66-130.93-17.1"/><path class="cls-11" d="M695.57,443.47a49.93,49.93,0,0,1-18.67-2.91"/><path class="cls-10" d="M627,350c13.51,4.38,23.28,15.61,11.37,20.51-19.88,8.19-83,5-86.11-13.36C548.46,335.22,606.48,343.37,627,350Z"/><path class="cls-9" d="M420.56,420c15.45,28-.72,58.36-25,73.24s-63.15,16.5-87.43-23.16c-15.24-24.91-20.68-28.22,45.22-58.34C379.24,399.92,408.36,397.88,420.56,420Z"/><ellipse class="cls-10" cx="381.84" cy="452.05" rx="35.31" ry="39.23"/><path class="cls-11" d="M295.14,440.56c60.18-43.64,91.31-45.66,130.94-17.1"/><path class="cls-11" d="M276.48,443.47a49.85,49.85,0,0,0,18.66-2.91"/><path class="cls-10" d="M349.39,350c-13.51,4.38-23.27,15.61-11.37,20.51,19.88,8.19,83,5,86.12-13.36C427.89,335.22,369.88,343.37,349.39,350Z"/><path class="cls-12" d="M454.69,454.36c.61,56.56-65.44,80.08-108.16,80.08-37,0-85.8-1.52-85.8-58.21s-11.32-102,91.32-102C466.94,374.27,454.07,397.67,454.69,454.36Z"/><path class="cls-12" d="M514.35,454.36c-.61,56.56,65.44,80.08,108.17,80.08,37,0,85.8-1.52,85.8-58.21s11.31-102-91.33-102C502.1,374.27,515,397.67,514.35,454.36Z"/><line class="cls-12" x1="454.85" y1="440.56" x2="509.28" y2="440.56"/><path class="cls-2" d="M583.05,710c0,5.29-3.66,10.09-9.34,12.18-16.51,6.1-52.52,17.75-88.63,18.68-34.24.88-71.94-12-88.86-18.58-5.55-2.16-9.11-6.88-9.11-12.1V694c0-9.32,10.91-15.75,21.06-12.4,19.4,6.4,49.28,14.46,76.91,14.61,29.14.15,58-7.63,76.72-14.05,10.18-3.49,21.25,3,21.25,12.37Z"/><path class="cls-13" d="M964.92,487c0,165.31-83.92,311-211.49,396.83a475.37,475.37,0,0,1-87.09,46.32c-1.35.56-2.71,1.1-4.06,1.64h0a475.93,475.93,0,0,1-55.37,18l-.56.15a482.23,482.23,0,0,1-204,7.57l-.44-.08q-7.59-1.36-15.1-3a471.12,471.12,0,0,1-57.06-15.94q-9.07-3.15-18-6.66a474.79,474.79,0,0,1-59.47-28.35.13.13,0,0,1-.07,0C107,821.41,9,665.63,9,487,9,223,223,9,487,9S964.92,223,964.92,487Z"/></g></g></svg>